<?xml version="1.0" encoding="utf-8"?>
<!-- Generator: Adobe Illustrator 27.5.0, SVG Export Plug-In . SVG Version: 6.00 Build 0)  -->
<svg version="1.1" id="Layer_1" xmlns="http://www.w3.org/2000/svg" xmlns:xlink="http://www.w3.org/1999/xlink" x="0px" y="0px"
	 viewBox="0 0 322.5 49" style="enable-background:new 0 0 322.5 49;" xml:space="preserve">
<style type="text/css">
	.st0{fill:#0A0A0A;}
	.st1{fill:none;stroke:#0A0A0A;stroke-width:0.35;stroke-miterlimit:10;}
</style>
<g>
	<polygon class="st0" points="14.4,8.1 5.4,8.1 5.4,0.3 0.9,0.3 0.9,19.9 5.4,19.9 5.4,11.9 14.4,11.9 14.4,19.9 18.9,19.9 
		18.9,0.3 14.4,0.3 	"/>
	<path class="st0" d="M51,2.9c-1-0.9-2.1-1.6-3.4-2.1C46.3,0.3,44.9,0,43.3,0c-1.5,0-3,0.3-4.3,0.8S36.6,2,35.6,2.9s-1.7,2-2.3,3.2
		c-0.5,1.2-0.8,2.6-0.8,4c0,1.5,0.3,2.8,0.8,4s1.3,2.3,2.2,3.2c1,0.9,2.1,1.6,3.4,2.1c1.3,0.5,2.7,0.8,4.3,0.8
		c1.5,0,2.9-0.3,4.2-0.8s2.4-1.2,3.4-2.1s1.7-2,2.3-3.2c0.5-1.2,0.8-2.6,0.8-4c0-1.5-0.3-2.8-0.8-4C52.7,4.9,51.9,3.8,51,2.9z
		 M49,12.7c-0.3,0.8-0.7,1.4-1.3,2s-1.2,1-1.9,1.3c-0.7,0.3-1.5,0.4-2.4,0.4S41.7,16.3,41,16c-0.7-0.3-1.4-0.7-1.9-1.3s-1-1.2-1.3-2
		s-0.5-1.6-0.5-2.5s0.2-1.8,0.5-2.5c0.3-0.8,0.7-1.4,1.3-2s1.2-1,1.9-1.3S42.5,4,43.4,4s1.7,0.1,2.4,0.4s1.4,0.7,1.9,1.3
		s1,1.2,1.3,2s0.5,1.6,0.5,2.5S49.3,11.9,49,12.7z"/>
	<polygon class="st0" points="86,0.3 78.8,12.5 71.5,0.3 67.7,0.3 67.7,19.9 72,19.9 72,8.4 77.7,17.9 79.8,17.9 85.5,8.2 
		85.6,19.9 89.8,19.9 89.8,0.3 	"/>
	<polygon class="st0" points="109.2,11.8 118.3,11.8 118.3,8.2 109.2,8.2 109.2,4 119.5,4 119.5,0.3 104.7,0.3 104.7,19.9 
		119.9,19.9 119.9,16.3 109.2,16.3 	"/>
	<path class="st0" d="M135,12.7c-0.7,0-1.4,0.2-1.9,0.7s-0.8,1.1-0.8,1.9s0.3,1.5,0.8,2s1.2,0.8,1.9,0.8c0.8,0,1.4-0.3,1.9-0.8
		s0.8-1.2,0.8-2c0-0.8-0.3-1.5-0.8-1.9S135.8,12.7,135,12.7z"/>
	<path class="st0" d="M135,2.7c-0.7,0-1.4,0.2-1.9,0.7s-0.8,1.1-0.8,1.9s0.3,1.5,0.8,2s1.2,0.8,1.9,0.8c0.8,0,1.4-0.3,1.9-0.8
		s0.8-1.2,0.8-2s-0.3-1.5-0.8-1.9C136.4,2.9,135.8,2.7,135,2.7z"/>
	<path class="st0" d="M293,7.7c-0.7,0-1.4,0.2-1.9,0.7s-0.8,1.1-0.8,1.9s0.3,1.5,0.8,2s1.2,0.8,1.9,0.8c0.8,0,1.4-0.3,1.9-0.8
		s0.8-1.2,0.8-2s-0.3-1.5-0.8-1.9C294.4,7.9,293.8,7.7,293,7.7z"/>
	<path class="st0" d="M165.8,1.6c-1.6-0.8-3.5-1.2-5.6-1.2h-8.9V20h8.9c2.1,0,4-0.4,5.6-1.2s2.9-2,3.8-3.4c0.9-1.5,1.4-3.2,1.4-5.2
		s-0.5-3.7-1.4-5.2C168.7,3.5,167.5,2.4,165.8,1.6z M165.6,13.4c-0.5,0.9-1.3,1.6-2.2,2.1c-1,0.5-2.1,0.7-3.4,0.7h-4.1V4.1h4.1
		c1.3,0,2.4,0.2,3.4,0.7s1.7,1.2,2.2,2.1s0.8,2,0.8,3.2C166.4,11.4,166.2,12.4,165.6,13.4z"/>
	<path class="st0" d="M197.7,13.6c1.3-0.6,2.2-1.4,2.9-2.4c0.7-1.1,1-2.3,1-3.8s-0.3-2.7-1-3.8s-1.7-1.9-2.9-2.5
		c-1.3-0.6-2.8-0.9-4.5-0.9h-8.5v19.6h4.5v-5.5h3.9c0.1,0,0.1,0,0.2,0l3.8,5.5h4.9L197.7,13.6L197.7,13.6z M196.1,4.9
		c0.7,0.6,1,1.4,1,2.5s-0.3,1.9-1,2.5c-0.7,0.6-1.7,0.9-3.1,0.9h-3.7V4h3.7C194.3,4,195.4,4.3,196.1,4.9z"/>
	<rect x="215.6" y="0.3" class="st0" width="4.5" height="19.6"/>
	<polygon class="st0" points="243.2,14.3 237.2,0.3 232.3,0.3 240.8,19.9 245.3,19.9 253.7,0.3 249.2,0.3 	"/>
	<polygon class="st0" points="270.2,11.8 279.3,11.8 279.3,8.2 270.2,8.2 270.2,4 280.5,4 280.5,0.3 265.6,0.3 265.6,19.9 
		280.8,19.9 280.8,16.3 270.2,16.3 	"/>
	<path class="st0" d="M318,0.3v10.8c0,1.9-0.4,3.2-1.1,4c-0.8,0.8-1.8,1.2-3.2,1.2c-1.4,0-2.5-0.4-3.2-1.2s-1.1-2.2-1.1-4V0.3h-4.5
		v11c0,2.9,0.8,5.1,2.4,6.6s3.7,2.3,6.5,2.3s5-0.8,6.5-2.3c1.6-1.5,2.4-3.8,2.4-6.6v-11C322.7,0.3,318,0.3,318,0.3z"/>
</g>
<g>
	<path class="st0" d="M73.2,48.5c-0.6-0.3-1.1-0.8-1.5-1.4c-0.4-0.6-0.5-1.3-0.5-2c0-0.8,0.2-1.4,0.5-2c0.4-0.6,0.9-1.1,1.5-1.4
		c0.6-0.3,1.3-0.5,2.1-0.5c0.6,0,1.2,0.1,1.7,0.3s1,0.5,1.3,1l-0.9,0.9c-0.6-0.6-1.2-0.9-2.1-0.9c-0.5,0-1,0.1-1.4,0.3s-0.7,0.6-1,1
		c-0.2,0.4-0.4,0.9-0.4,1.4s0.1,1,0.4,1.4c0.2,0.4,0.6,0.7,1,1c0.4,0.2,0.9,0.3,1.4,0.3c0.8,0,1.5-0.3,2.1-0.9l0.9,0.9
		c-0.4,0.4-0.8,0.7-1.3,1c-0.5,0-1,0.1-1.7,0.1C74.6,49,73.8,48.8,73.2,48.5z"/>
	<path class="st0" d="M88.8,48.9l-1.6-2.3c-0.1,0-0.2,0-0.3,0h-1.7v2.2h-1.4v-7.7H87c0.7,0,1.2,0.1,1.7,0.3s0.9,0.5,1.1,0.9
		s0.4,0.9,0.4,1.5s-0.1,1.1-0.4,1.5s-0.7,0.7-1.2,0.9l1.8,2.5h-1.6V48.9z M88.3,42.8c-0.3-0.3-0.8-0.4-1.4-0.4h-1.7v3.1h1.7
		c0.6,0,1.1-0.1,1.4-0.4c0.3-0.3,0.5-0.6,0.5-1.1S88.6,43.1,88.3,42.8z"/>
	<path class="st0" d="M101.7,47.7v1.2h-5.8v-7.7h5.6v1.2h-4.2v2h3.7v1.2h-3.7v2.1H101.7z"/>
	<path class="st0" d="M112.3,47.1h-3.9l-0.8,1.8h-1.5l3.5-7.7h1.4l3.5,7.7H113L112.3,47.1z M111.8,46l-1.5-3.4l-1.4,3.4H111.8z"/>
	<path class="st0" d="M120.7,42.4h-2.6v-1.2h6.5v1.2H122v6.5h-1.4L120.7,42.4L120.7,42.4z"/>
	<path class="st0" d="M129.8,41.2h1.4v7.7h-1.4V41.2z"/>
	<path class="st0" d="M144.2,41.2v7.7H143l-4.2-5.2v5.2h-1.4v-7.7h1.2l4.2,5.2v-5.2H144.2z"/>
	<path class="st0" d="M155.6,45h1.4v3c-0.4,0.3-0.9,0.6-1.4,0.7c-0.5,0.2-1.1,0.3-1.6,0.3c-0.8,0-1.5-0.2-2.1-0.5s-1.1-0.8-1.5-1.4
		c-0.4-0.6-0.5-1.3-0.5-2c0-0.8,0.2-1.4,0.5-2c0.4-0.6,0.9-1.1,1.5-1.4c0.6-0.3,1.3-0.5,2.1-0.5c0.6,0,1.2,0.1,1.8,0.3
		c0.5,0.2,1,0.5,1.3,0.9l-0.9,0.9c-0.6-0.6-1.3-0.9-2.1-0.9c-0.5,0-1,0.1-1.4,0.3s-0.8,0.5-1,1s-0.4,0.9-0.4,1.4s0.1,1,0.4,1.4
		s0.6,0.7,1,1c0.4,0.2,0.9,0.4,1.4,0.4c0.6,0,1.1-0.1,1.6-0.4V45H155.6z"/>
	<path class="st0" d="M171.4,48.5c-0.6-0.3-1.1-0.8-1.5-1.4c-0.4-0.6-0.5-1.3-0.5-2c0-0.8,0.2-1.4,0.5-2c0.4-0.6,0.9-1.1,1.5-1.4
		c0.6-0.3,1.3-0.5,2.1-0.5c0.6,0,1.2,0.1,1.7,0.3s1,0.5,1.3,1l-0.9,0.9c-0.6-0.6-1.2-0.9-2.1-0.9c-0.5,0-1,0.1-1.4,0.3s-0.7,0.6-1,1
		c-0.2,0.4-0.4,0.9-0.4,1.4s0.1,1,0.4,1.4c0.2,0.4,0.6,0.7,1,1c0.4,0.2,0.9,0.3,1.4,0.3c0.8,0,1.5-0.3,2.1-0.9l0.9,0.9
		c-0.4,0.4-0.8,0.7-1.3,1c-0.5,0.2-1.1,0.3-1.7,0.3C172.7,49,172,48.8,171.4,48.5z"/>
	<path class="st0" d="M183.3,48.5c-0.6-0.3-1.1-0.8-1.5-1.4c-0.4-0.6-0.5-1.3-0.5-2s0.2-1.4,0.5-2c0.4-0.6,0.9-1.1,1.5-1.4
		c0.6-0.3,1.3-0.5,2.1-0.5s1.5,0.2,2.1,0.5s1.1,0.8,1.5,1.4c0.4,0.6,0.5,1.3,0.5,2c0,0.8-0.2,1.4-0.5,2c-0.4,0.6-0.9,1.1-1.5,1.4
		c-0.6,0.3-1.3,0.5-2.1,0.5S183.9,48.8,183.3,48.5z M186.8,47.4c0.4-0.2,0.7-0.6,1-1c0.2-0.4,0.4-0.9,0.4-1.4s-0.1-1-0.4-1.4
		c-0.2-0.4-0.6-0.7-1-1c-0.4-0.2-0.9-0.3-1.4-0.3s-1,0.1-1.4,0.3s-0.7,0.6-1,1c-0.2,0.4-0.4,0.9-0.4,1.4s0.1,1,0.4,1.4
		c0.2,0.4,0.6,0.7,1,1c0.4,0.2,0.9,0.3,1.4,0.3S186.4,47.6,186.8,47.4z"/>
	<path class="st0" d="M202.2,48.9v-5.1l-2.5,4.2H199l-2.5-4.2v5h-1.4v-7.7h1.2l3.1,5.1l3-5.1h1.2v7.7L202.2,48.9L202.2,48.9z"/>
	<path class="st0" d="M211.1,42.4v2.3h3.7V46h-3.7v2.9h-1.4v-7.7h5.6v1.2H211.1z"/>
	<path class="st0" d="M222.1,48.5c-0.6-0.3-1.1-0.8-1.5-1.4c-0.4-0.6-0.5-1.3-0.5-2s0.2-1.4,0.5-2c0.4-0.6,0.9-1.1,1.5-1.4
		c0.6-0.3,1.3-0.5,2.1-0.5s1.5,0.2,2.1,0.5s1.1,0.8,1.5,1.4c0.4,0.6,0.5,1.3,0.5,2c0,0.8-0.2,1.4-0.5,2c-0.4,0.6-0.9,1.1-1.5,1.4
		c-0.6,0.3-1.3,0.5-2.1,0.5C223.4,49,222.7,48.8,222.1,48.5z M225.6,47.4c0.4-0.2,0.7-0.6,1-1c0.2-0.4,0.4-0.9,0.4-1.4
		s-0.1-1-0.4-1.4c-0.2-0.4-0.6-0.7-1-1c-0.4-0.2-0.9-0.3-1.4-0.3s-1,0.1-1.4,0.3s-0.7,0.6-1,1c-0.2,0.4-0.4,0.9-0.4,1.4
		s0.1,1,0.4,1.4c0.2,0.4,0.6,0.7,1,1c0.4,0.2,0.9,0.3,1.4,0.3S225.2,47.6,225.6,47.4z"/>
	<path class="st0" d="M238.9,48.9l-1.6-2.3c-0.1,0-0.2,0-0.3,0h-1.7v2.2h-1.4v-7.7h3.2c0.7,0,1.2,0.1,1.7,0.3s0.9,0.5,1.1,0.9
		s0.4,0.9,0.4,1.5s-0.1,1.1-0.4,1.5s-0.7,0.7-1.2,0.9l1.8,2.5h-1.6V48.9z M238.4,42.8c-0.3-0.3-0.8-0.4-1.4-0.4h-1.7v3.1h1.7
		c0.6,0,1.1-0.1,1.4-0.4c0.3-0.3,0.5-0.6,0.5-1.1S238.7,43.1,238.4,42.8z"/>
	<path class="st0" d="M247.4,42.4h-2.6v-1.2h6.5v1.2h-2.6v6.5h-1.4v-6.5H247.4z"/>
</g>
<line class="st1" x1="0" y1="45.4" x2="53" y2="45.4"/>
<line class="st1" x1="269" y1="44.8" x2="322" y2="44.8"/>
</svg>
