<?xml version="1.0" encoding="utf-8"?>
<!-- Generator: Adobe Illustrator 27.5.0, SVG Export Plug-In . SVG Version: 6.00 Build 0)  -->
<svg version="1.1" id="Layer_1" xmlns="http://www.w3.org/2000/svg" xmlns:xlink="http://www.w3.org/1999/xlink" x="0px" y="0px"
	 viewBox="0 0 1763.3 651.7" style="enable-background:new 0 0 1763.3 651.7;" xml:space="preserve">
<style type="text/css">
	.st0{fill:#FFFFFF;}
	.st1{fill:none;stroke:#FFFFFF;stroke-miterlimit:10;}
</style>
<rect width="1763.3" height="651.7"/>
<path class="st0" d="M1444.8,226.3c0-0.4,0-0.8,0-1.4c0-4.2-1.6-6.1-3.2-6.9c-1.5-0.8-4.5-0.7-4.5-0.7v0c-39,0.1-78.1,0.1-117.1,0v0
	h-11.8c-0.3,0-0.7-0.1-1.1-0.1c-27.1,0.1-54.1-0.1-81.2,0.2c-7.6,0.1-15.4,1-22.8,2.8c-14.8,3.7-25.4,12.9-30.5,28.1
	c-4.2,12.5-4.5,25.2-1.6,38.1c3.2,14.2,11.2,24.3,24,30.3c9.4,4.4,19.5,6,29.7,6.2c12.8,0.2,25.7,0,38.5,0.1c2.9,0,5.9,0.3,8.8,1
	c7.4,1.6,11.8,7.5,11.8,15.4c0,7.9-3.9,13-11.6,14.8c-2.4,0.5-4.9,0.6-7.4,0.6c-27.2,0-54.3,0-81.5,0c0,0,0,0,0,0
	c-9.3,0-11,4.8-11.3,7.4c0,0.6,0,1.1,0,1.7c0,0,0,0.1,0,0.1l0,0c0,7.6,0,15.3,0,22.9l0-0.1c0,0-1.2,7.2,12.2,7.2
	c13.2-0.1,26.3-0.1,39.5-0.1c13.4,0,26.9,0.2,40.3-0.1c6.6-0.1,13.3-0.6,19.7-1.9c17-3.5,29.4-13.1,34.9-30.7c4-12.9,4.1-26,0.8-39
	c-3.4-13.4-11.3-22.9-23.5-28.6c-9.7-4.5-20-6.1-30.6-6.3c-12.7-0.2-25.5,0-38.2-0.1c-2.8,0-5.7-0.4-8.5-0.9
	c-6.7-1.4-10.8-6.4-11.3-13.5c-0.5-7.1,2.5-12.9,8.4-15c3-1,6.4-1.4,9.6-1.4c27.3-0.1,54.5-0.1,81.8,0c0.4,0,0.8,0,1.1-0.1h11.8v0
	c4.7,0,9.5,0,14.2,0h16.3c2,0,4,0,6,0c4.4,0,4.4,0,4.4,4.4c0,41.4,0,82.8,0,124.2c0.4,3.3,2.4,8.4,11.2,8.9c3,0,9,0.1,9,0.1h7
	c0,0,3.4-0.4,5.6-1.6c0,0,0,0,0,0c0,0,0.1,0,0.1-0.1c0,0,0,0,0,0c4.6-2.1,5.4-6.2,5.5-8.6l0,0v-0.1c0,0,0-0.1,0-0.1l0-1.6l0,0
	c0-40.3,0-80.6,0-120.9c0-5.2-0.4-4.7,4.7-4.7c11.4,0,22.7,0,34.1,0c0,0,0.6,0,1,0c1.8-0.2,5.4-1.2,5.7-7.3c0-0.5,0.1-0.9,0.1-1.2
	C1444.8,240.8,1444.8,233.6,1444.8,226.3z"/>
<path class="st0" d="M835.6,264.2c-1.2-12.9-5.8-24.2-15.1-33.1c-10.7-10.1-23.8-13.6-37.7-13.7c-27.3-0.2-54.5-0.1-81.8-0.2l0,0
	c0,0-0.1,0-0.1,0c-0.1,0-0.2,0-0.2,0c-1.5,0-7,0.8-7,10c0,0.4,0,0.8,0,1.1c0,0,0,0,0,0.1v40.3c0,4.4,3.4,7.9,7.6,7.9H724
	c4.2,0,7.6-3.6,7.6-7.9v-12c16.2,0,32.4,0,48.6,0c3.1,0,6.4,0.5,9.2,1.6c9.4,3.8,10.1,17.6,5.9,24.7c-3.3,5.6-8.6,7.3-14.5,7.3
	c-9.7,0-19.4,0-29,0c-15.6,0.8-56.5,5.9-58.1,36c-0.3,21.6-0.1,43.3-0.1,65c0,1,0.1,2,0.1,3.2c1.3,0.1,2.3,0.2,3.4,0.2
	c10.5,0,20.9-0.1,31.4,0.1c2.9,0,3.9-0.6,3.8-3.9c-0.2-18.6-0.1-37.1-0.1-55.7c0-6.4,0.7-7.1,6.8-7.1c13.1,0,26.3,0.2,39.4-0.1
	c6.1-0.1,12.3-0.6,18.2-1.9c14.7-3.3,25.8-11.7,32.8-25.8C835.3,288.9,836.8,276.7,835.6,264.2z"/>
<path class="st0" d="M475.2,349.9c4.1,0,6.9-4.2,5.5-8.1l-9.3-25.1l0,0c-8.5-24.7-17.1-49.4-25.6-74.1
	c-4.3-12.5-12.5-21.3-25.5-23.9c-7-1.4-14.3-1.7-21.5-1.4c-17.4,0.7-29.3,9.5-35.4,26.5c-16,44.6-32.3,89-48.4,133.5
	c-1.2,3.4-2.4,6.8-3.7,10.3c0,0.2-1.1,6,6,6.2c8.3,0,16.7,0,25,0c7.4,0.2,10.3-4.1,11.2-6.3c0.1-0.4,0.3-0.8,0.4-1.2
	c0,0,0-0.1,0-0.1l0,0c1.8-5.1,3.7-10.2,5.5-15.3c10-23.6,53.7-28.8,79.7-29.8l0.9,2.2c1.5,3.9,5.2,6.5,9.3,6.5H475.2z M398.5,261.8
	c1-2.9,2.7-4.9,5.9-5c3-0.1,4.8,1.3,6.1,5c1.5,4.1,2.9,8.3,4.3,12.5c4.4,13,8.9,25.9,13.3,38.9c-26.4,0.5-42.6,5.8-52.1,10.8
	l10.5-29.1C390.6,283.9,394.6,272.9,398.5,261.8z"/>
<path class="st0" d="M998.7,383.4c-0.6-1.8-1.3-3.7-2-5.5c-2.1-5.9-4.3-11.8-6.4-17.7c-13.4-38.9-26.8-77.8-40.2-116.7
	c-3.5-10.2-9.5-18.3-19.7-22.5c-7.3-3-14.9-3.8-22.5-3.6c-0.7,0-1.4,0-2.1,0v0.1c-1.1,0.1-2.2,0.1-3.3,0.2
	c-16.8,1.2-28.6,9.3-34.5,25.8c-16.2,44.9-32.4,89.7-48.6,134.5c-0.7,1.8-1.3,3.7-2,5.5c-0.5,1.6-2.7,10.7,8.1,11.5
	c7.3,0,14.7,0,22,0c3-0.5,8.5-2.5,11.6-10.3c1.1-3.2,2.3-6.3,3.4-9.5c0.6-1.6,1.1-3.1,1.7-4.7l-0.1,0l1.9-5.4
	c15-17.8,52.5-22,75.7-22.8l9.2,25.7c0.3,0.8,0.6,1.7,0.9,2.5l-0.1,0c0.4,1.2,0.8,2.4,1.3,3.5c0.9,2.6,1.8,5.1,2.6,7.7l0,0
	c0,0,0,0,0,0l0.7,2.2c0.2,0.5,0.5,1,0.8,1.6c1.6,3.6,3.6,5.8,5.7,7.2c1.5,1,3.1,1.7,4.9,2c0.4,0.1,0.8,0.1,1.2,0.1h22.2
	c0.7,0,1.4-0.1,2.1-0.3l0,0l0,0C1000.9,392.4,999.1,384.8,998.7,383.4z M880.9,323.7l2.9-8.1c6.3-17.6,12.5-35.1,18.8-52.7
	c1.3-3.7,2.9-5.3,5.5-5.6c2.6,0.3,4.2,1.9,5.5,5.6c6.1,17,12.1,34,18.2,51.1C906.8,314.4,890.8,319,880.9,323.7z"/>
<path class="st0" d="M1154.6,260.6c-2.2-14.4-8.7-26.3-20.8-34.3c-9.7-6.4-20.6-8.9-31.9-8.9c-25.8-0.1-51.6-0.1-77.4-0.1
	c0,0,0,0-0.1,0c-9.6,0-11.2,6-11.5,9.1c0,0.6,0,1.2,0,1.8c0,0.1-0.1,0.2-0.1,0.3v40.2c0,4.4,3.4,8,7.7,8h22.7c4.2,0,7.7-3.6,7.7-8
	v-12c15.7,0,31.4,0,47.2,0c1.8,0,3.6,0,5.3,0.1c7,0.6,12,5.1,13.4,11.9c1.7,8.3-1.1,16.5-7.3,19.5c-2.9,1.4-6.4,2.1-9.7,2.1
	c-9.4,0.1-18.8,0.1-28.2,0.1c-15.6,0.8-56.6,5.8-58.2,36.1c0,0.6-0.1,1-0.1,1.6c0,5.2-0.1,10.4-0.1,15.6h0v0.5c0,3.6,0,7.2,0,10.8
	c0,0,0,0,0,0v32.2c0,0,0.2,7,11.1,7.6c4.7,0,9.4,0,14.2,0v0c0,0,0,0,0,0c0.2,0,0.4,0,0.6,0c0,0,0.1,0,0.1,0c1.7-0.1,6-0.4,7.5-1
	c0,0,0,0,0,0v0c4-1.4,5-4.5,5-7.1c0-0.3,0-0.6,0-0.9c-0.1-1.9-0.1-35.2-0.1-51.2c0-5.2,1.1-6.4,6-6.4c6.9,0,13.8,0.1,20.7,0
	c10.9-0.2,22,0.2,32.8-1.1c15.9-1.9,28.5-9.9,36.6-24.7C1155.1,289.3,1156.8,275.2,1154.6,260.6z"/>
<path class="st0" d="M635,217.5c-0.3,0-0.6,0-0.9,0h-8.2c-8.9,0-16.8,5.5-19.9,13.9l-3,8l-28.2,85.2c-1.5,4.6-2.9,9.2-4.4,13.8
	c-0.6,1.7-1.1,3.5-1.7,5.2l-2.3,7c-1,3.1-2.4,4.6-4.5,4.9h-1c-2.1-0.3-3.4-1.8-4.5-4.9l-2.3-7c-0.6-1.7-1.1-3.5-1.7-5.2
	c-1.5-4.6-2.9-9.2-4.4-13.8L520,239.4l-3-8c-3.1-8.3-11-13.9-19.9-13.9h-8.2c-0.3,0-0.6,0-0.9,0c-8.7,0.4-14.4,9.4-11.4,17.7
	l21.7,59.9l23.8,67.3l0,0c0.8,2.4,1.6,4.8,2.3,7.2c4,12.3,11.5,20.9,23.4,23.4c4.3,0.9,8.7,1.3,13.1,1.4v0h1.1v0
	c4.4-0.1,8.8-0.5,13.1-1.4c11.9-2.5,19.4-11.1,23.4-23.4c0.8-2.4,1.6-4.8,2.3-7.2l0,0l23.8-67.3l21.7-59.9
	C649.4,227,643.7,218,635,217.5z"/>
<line class="st1" x1="1254.2" y1="482.1" x2="1454.3" y2="482.1"/>
<line class="st1" x1="318.8" y1="482.1" x2="519" y2="482.1"/>
<g>
	<path class="st0" d="M634.7,485.2v4.3h-20.9v-27.7h20.3v4.3h-15.2v7.2h13.5v4.2h-13.5v7.6H634.7z"/>
	<path class="st0" d="M651.5,489c-2-0.6-3.6-1.4-4.8-2.4l1.8-4c1.1,0.9,2.5,1.6,4.2,2.2c1.7,0.6,3.3,0.8,5,0.8c2.1,0,3.6-0.3,4.6-1
		c1-0.7,1.5-1.5,1.5-2.6c0-0.8-0.3-1.4-0.9-2c-0.6-0.5-1.3-0.9-2.2-1.2c-0.9-0.3-2.1-0.6-3.6-1c-2.1-0.5-3.8-1-5.2-1.5
		c-1.3-0.5-2.4-1.3-3.4-2.4s-1.4-2.5-1.4-4.3c0-1.5,0.4-2.9,1.3-4.2c0.8-1.3,2.1-2.2,3.8-3c1.7-0.7,3.7-1.1,6.2-1.1
		c1.7,0,3.4,0.2,5,0.6c1.6,0.4,3.1,1,4.3,1.8l-1.6,4c-1.2-0.7-2.5-1.3-3.8-1.6s-2.6-0.6-3.9-0.6c-2,0-3.6,0.3-4.6,1
		c-1,0.7-1.5,1.6-1.5,2.7c0,0.8,0.3,1.4,0.9,1.9s1.3,0.9,2.2,1.2s2.1,0.6,3.6,1c2.1,0.5,3.8,1,5.1,1.5c1.3,0.5,2.5,1.3,3.4,2.4
		c0.9,1.1,1.4,2.5,1.4,4.3c0,1.5-0.4,2.9-1.3,4.2c-0.8,1.2-2.1,2.2-3.8,3s-3.8,1.1-6.2,1.1C655.6,489.9,653.5,489.6,651.5,489z"/>
	<path class="st0" d="M688.1,466.1h-9.2v-4.4h23.6v4.4h-9.2v23.3h-5.2V466.1z"/>
	<path class="st0" d="M731.8,483.1h-13.9l-2.7,6.4h-5.3l12.5-27.7h5.1l12.6,27.7h-5.4L731.8,483.1z M730,479l-5.3-12.1l-5.2,12.1
		H730z"/>
	<path class="st0" d="M775.6,477.6c0.9,1.2,1.4,2.6,1.4,4.4c0,2.4-0.9,4.3-2.8,5.6s-4.6,2-8.1,2h-13.9v-27.7h13.1
		c3.3,0,5.8,0.6,7.6,1.9c1.8,1.3,2.7,3,2.7,5.3c0,1.4-0.3,2.6-1,3.6s-1.5,1.9-2.6,2.5C773.5,475.6,774.7,476.4,775.6,477.6z
		 M757.4,465.8v7.6h7.3c1.8,0,3.2-0.3,4.2-1c1-0.6,1.5-1.6,1.5-2.8c0-1.3-0.5-2.2-1.5-2.9c-1-0.6-2.4-1-4.2-1H757.4z M771.7,481.4
		c0-2.7-2-4-6-4h-8.4v8h8.4C769.7,485.4,771.7,484.1,771.7,481.4z"/>
	<path class="st0" d="M791.1,461.8h5.2v23.3h14.6v4.4h-19.7V461.8z"/>
	<path class="st0" d="M823.7,461.8h5.2v27.7h-5.2V461.8z"/>
	<path class="st0" d="M847.5,489c-2-0.6-3.6-1.4-4.8-2.4l1.8-4c1.1,0.9,2.5,1.6,4.2,2.2c1.7,0.6,3.3,0.8,5,0.8c2.1,0,3.6-0.3,4.6-1
		c1-0.7,1.5-1.5,1.5-2.6c0-0.8-0.3-1.4-0.9-2c-0.6-0.5-1.3-0.9-2.2-1.2c-0.9-0.3-2.1-0.6-3.6-1c-2.1-0.5-3.8-1-5.2-1.5
		c-1.3-0.5-2.4-1.3-3.4-2.4s-1.4-2.5-1.4-4.3c0-1.5,0.4-2.9,1.3-4.2c0.8-1.3,2.1-2.2,3.8-3c1.7-0.7,3.7-1.1,6.2-1.1
		c1.7,0,3.4,0.2,5,0.6c1.6,0.4,3.1,1,4.3,1.8l-1.6,4c-1.2-0.7-2.5-1.3-3.8-1.6s-2.6-0.6-3.9-0.6c-2,0-3.6,0.3-4.6,1
		c-1,0.7-1.5,1.6-1.5,2.7c0,0.8,0.3,1.4,0.9,1.9s1.3,0.9,2.2,1.2s2.1,0.6,3.6,1c2.1,0.5,3.8,1,5.1,1.5c1.3,0.5,2.5,1.3,3.4,2.4
		c0.9,1.1,1.4,2.5,1.4,4.3c0,1.5-0.4,2.9-1.3,4.2c-0.8,1.2-2.1,2.2-3.8,3s-3.8,1.1-6.2,1.1C851.5,489.9,849.5,489.6,847.5,489z"/>
	<path class="st0" d="M903.5,461.8v27.7h-5.2v-11.9h-14.4v11.9h-5.2v-27.7h5.2v11.4h14.4v-11.4H903.5z"/>
	<path class="st0" d="M940.6,485.2v4.3h-20.9v-27.7H940v4.3h-15.2v7.2h13.5v4.2h-13.5v7.6H940.6z"/>
	<path class="st0" d="M955,461.8h12.2c3,0,5.6,0.6,7.9,1.7c2.3,1.1,4.1,2.8,5.4,4.9c1.3,2.1,1.9,4.5,1.9,7.3c0,2.7-0.6,5.2-1.9,7.3
		c-1.3,2.1-3.1,3.7-5.4,4.9c-2.3,1.1-5,1.7-7.9,1.7H955V461.8z M967,485.1c2,0,3.8-0.4,5.4-1.2c1.6-0.8,2.7-1.9,3.6-3.3
		c0.8-1.4,1.3-3.1,1.3-5s-0.4-3.6-1.3-5c-0.8-1.4-2-2.5-3.6-3.3c-1.6-0.8-3.4-1.2-5.4-1.2h-6.8v19H967z"/>
	<path class="st0" d="M1034.5,485.1v4.4h-20.5V486l11.1-10.4c1.2-1.2,2.1-2.2,2.5-3.1c0.4-0.9,0.7-1.8,0.7-2.6c0-1.3-0.4-2.3-1.3-3
		c-0.9-0.7-2.2-1-3.9-1c-2.8,0-5,1-6.5,2.9l-3.6-2.8c1.1-1.5,2.6-2.6,4.4-3.4c1.8-0.8,3.9-1.2,6.2-1.2c3,0,5.4,0.7,7.2,2.1
		c1.8,1.4,2.7,3.4,2.7,5.8c0,1.5-0.3,2.9-1,4.2c-0.6,1.3-1.9,2.8-3.7,4.5l-7.4,7H1034.5z"/>
	<path class="st0" d="M1051.7,488.2c-1.8-1.1-3.1-2.8-4.1-4.9c-1-2.1-1.5-4.7-1.5-7.7c0-3,0.5-5.5,1.5-7.7c1-2.1,2.4-3.8,4.1-4.9
		c1.8-1.1,3.7-1.7,6-1.7s4.2,0.6,6,1.7c1.8,1.1,3.2,2.8,4.2,4.9c1,2.2,1.5,4.7,1.5,7.7c0,3-0.5,5.5-1.5,7.7s-2.4,3.8-4.2,4.9
		c-1.8,1.1-3.8,1.7-6,1.7S1053.4,489.3,1051.7,488.2z M1062.3,482.9c1.2-1.6,1.7-4.1,1.7-7.3c0-3.2-0.6-5.7-1.7-7.3
		c-1.2-1.6-2.7-2.5-4.7-2.5c-2,0-3.5,0.8-4.7,2.5s-1.7,4.1-1.7,7.3c0,3.2,0.6,5.7,1.7,7.3s2.7,2.5,4.7,2.5
		C1059.6,485.4,1061.2,484.6,1062.3,482.9z"/>
	<path class="st0" d="M1087.1,488.2c-1.8-1.1-3.1-2.8-4.1-4.9c-1-2.1-1.5-4.7-1.5-7.7c0-3,0.5-5.5,1.5-7.7c1-2.1,2.4-3.8,4.1-4.9
		c1.8-1.1,3.7-1.7,6-1.7s4.2,0.6,6,1.7c1.8,1.1,3.2,2.8,4.2,4.9c1,2.2,1.5,4.7,1.5,7.7c0,3-0.5,5.5-1.5,7.7s-2.4,3.8-4.2,4.9
		c-1.8,1.1-3.8,1.7-6,1.7S1088.9,489.3,1087.1,488.2z M1097.8,482.9c1.2-1.6,1.7-4.1,1.7-7.3c0-3.2-0.6-5.7-1.7-7.3
		c-1.2-1.6-2.7-2.5-4.7-2.5c-2,0-3.5,0.8-4.7,2.5s-1.7,4.1-1.7,7.3c0,3.2,0.6,5.7,1.7,7.3s2.7,2.5,4.7,2.5
		C1095.1,485.4,1096.7,484.6,1097.8,482.9z"/>
	<path class="st0" d="M1137.8,461.8v3.4l-10.8,24.2h-5.5l10.5-23.3h-10.9v4.7h-4.8v-9.1H1137.8z"/>
</g>
<path class="st0" d="M498.3,387.1c-0.1-0.5-0.2-0.8-0.3-1.2c0-0.2-0.1-0.4-0.1-0.6c0-0.1,0-0.1-0.1-0.2c-0.1-0.4-0.2-0.8-0.3-1.2
	c-2-6.2-4.1-12.5-6.1-18.7c-1-3-3.6-5-6.5-5H459c-4.2,0-7.2,3.9-6.9,8.1h0c0.1,0.5,0.2,0.8,0.3,1.2c0,0.2,0.1,0.4,0.1,0.6
	c0,0.1,0,0.1,0.1,0.2c0.1,0.4,0.2,0.8,0.3,1.2c2,6.2,4.1,12.5,6.1,18.7c1,3,3.6,5,6.5,5h25.9C495.6,395.2,498.6,391.3,498.3,387.1
	L498.3,387.1z"/>
<path class="st0" d="M668.2,387.1c-0.1-0.5-0.2-0.8-0.3-1.2c0-0.2-0.1-0.4-0.1-0.6c0-0.1,0-0.1-0.1-0.2c-0.1-0.4-0.2-0.8-0.3-1.2
	c-2-6.2-4.1-12.5-6.1-18.7c-1-3-3.6-5-6.5-5h-25.9c-4.2,0-7.2,3.9-6.9,8.1h0c0.1,0.5,0.2,0.8,0.3,1.2c0,0.2,0.1,0.4,0.1,0.6
	c0,0.1,0,0.1,0.1,0.2c0.1,0.4,0.2,0.8,0.3,1.2c2,6.2,4.1,12.5,6.1,18.7c1,3,3.6,5,6.5,5h25.9C665.4,395.2,668.5,391.3,668.2,387.1
	L668.2,387.1z"/>
<g>
</g>
<g>
</g>
<g>
</g>
<g>
</g>
<g>
</g>
<g>
</g>
</svg>
