<?xml version="1.0" encoding="utf-8"?>
<!-- Generator: Adobe Illustrator 28.2.0, SVG Export Plug-In . SVG Version: 6.00 Build 0)  -->
<svg version="1.1" id="Слой_1" xmlns="http://www.w3.org/2000/svg" xmlns:xlink="http://www.w3.org/1999/xlink" x="0px" y="0px"
	 viewBox="0 0 2048 626.51" style="enable-background:new 0 0 2048 626.51;" xml:space="preserve">
<style type="text/css">
	.st0{fill:#010202;}
	.st1{fill:#FFFFFF;}
	.st2{fill:#EA5D60;}
	.st3{fill:#020203;}
</style>
<g>
	<g>
		<path class="st0" d="M673.45,435.04c-4.48-2.59-8.05-6.06-10.72-10.44c-2.66-4.37-4-9.09-4-14.16c0-5.07,1.33-9.77,4-14.12
			c2.67-4.35,6.24-7.81,10.72-10.4c4.48-2.59,9.3-3.88,14.48-3.88c4.11,0,8.01,0.81,11.72,2.44c3.71,1.62,6.92,3.88,9.64,6.76
			l-8.56,7.68c-1.65-1.92-3.59-3.43-5.8-4.52c-2.22-1.09-4.55-1.64-7-1.64c-2.99,0-5.8,0.81-8.44,2.44
			c-2.64,1.63-4.74,3.8-6.28,6.52c-1.55,2.72-2.32,5.63-2.32,8.72c0,3.15,0.77,6.08,2.32,8.8c1.55,2.72,3.64,4.89,6.28,6.52
			c2.64,1.63,5.45,2.44,8.44,2.44c2.45,0,4.79-0.54,7-1.64c2.21-1.09,4.14-2.6,5.8-4.52l8.56,7.68c-2.72,2.88-5.95,5.14-9.68,6.76
			c-3.73,1.63-7.63,2.44-11.68,2.44C682.75,438.92,677.92,437.62,673.45,435.04z"/>
		<path class="st0" d="M759.28,437.96l-12.56-17.84H738v17.84h-11.76V383h24.72c3.95,0,7.49,0.79,10.64,2.36
			c3.15,1.57,5.61,3.77,7.4,6.6c1.79,2.82,2.68,6.03,2.68,9.6c0,4.05-1.13,7.6-3.4,10.64c-2.27,3.04-5.29,5.23-9.08,6.56l13.52,19.2
			H759.28z M738,409.32h11.68c2.93,0,5.3-0.71,7.12-2.12c1.81-1.41,2.72-3.29,2.72-5.64c0-2.35-0.91-4.23-2.72-5.64
			s-4.19-2.12-7.12-2.12H738V409.32z"/>
		<path class="st0" d="M802,393.64v10.96h27.6v10.64H802v12.08h30.48v10.64h-42.32V383h42.32v10.64H802z"/>
		<path class="st0" d="M887.92,429.32h-24.48l-3.52,8.64h-13.2l22.4-54.96h13.2l22.4,54.96h-13.28L887.92,429.32z M883.84,419.32
			l-8.16-20.08l-8.16,20.08H883.84z"/>
		<path class="st0" d="M929.84,393.64h-17.12V383h46.08v10.64h-17.12v44.32h-11.84V393.64z"/>
		<path class="st0" d="M976.56,383h11.84v54.96h-11.84V383z"/>
		<path class="st0" d="M1062.64,383l-22.4,54.96h-13.2l-22.4-54.96h13.28l15.76,38.72l15.76-38.72H1062.64z"/>
		<path class="st0" d="M1090.64,393.64v10.96h27.6v10.64h-27.6v12.08h30.48v10.64h-42.32V383h42.32v10.64H1090.64z"/>
		<path class="st0" d="M1183.68,435.76c-3.79-2.11-6.74-5.04-8.84-8.8c-2.11-3.76-3.16-8.01-3.16-12.76V383h11.76v30.72
			c0,2.77,0.56,5.27,1.68,7.48c1.12,2.21,2.68,3.93,4.68,5.16c2,1.23,4.26,1.84,6.76,1.84c2.51,0,4.75-0.61,6.72-1.84
			c1.97-1.23,3.52-2.95,4.64-5.16c1.12-2.21,1.68-4.71,1.68-7.48V383h11.84v31.2c0,4.75-1.05,9-3.16,12.76
			c-2.11,3.76-5.05,6.69-8.84,8.8c-3.79,2.11-8.08,3.16-12.88,3.16C1191.76,438.92,1187.46,437.87,1183.68,435.76z"/>
		<path class="st0" d="M1242.32,383h11.76l26.48,35.52V383h11.84v54.96h-11.84l-26.48-35.52v35.52h-11.76V383z"/>
		<path class="st0" d="M1313.6,383h11.84v54.96h-11.84V383z"/>
		<path class="st0" d="M1360.32,393.64h-17.12V383h46.08v10.64h-17.12v44.32h-11.84V393.64z"/>
	</g>
	<g>
		<path class="st0" d="M421.81,304.79l-25.88-36.76h-17.97v36.76h-24.23V191.55h50.93c8.13,0,15.44,1.62,21.93,4.86
			c6.48,3.24,11.56,7.78,15.25,13.6c3.68,5.83,5.52,12.42,5.52,19.78c0,8.35-2.33,15.66-7,21.93c-4.67,6.26-10.91,10.77-18.71,13.52
			l27.86,39.56H421.81z M377.97,245.78h24.06c6.04,0,10.94-1.46,14.67-4.37c3.74-2.91,5.61-6.78,5.61-11.62
			c0-4.83-1.87-8.71-5.61-11.62c-3.74-2.91-8.63-4.37-14.67-4.37h-24.06V245.78z"/>
		<path class="st0" d="M514.77,298.68c-9.23-5.33-16.59-12.5-22.09-21.51c-5.5-9.01-8.24-18.74-8.24-29.18
			c0-10.44,2.75-20.14,8.24-29.09c5.49-8.95,12.86-16.09,22.09-21.43c9.23-5.33,19.18-8,29.84-8c10.77,0,20.77,2.67,30,8
			c9.23,5.33,16.57,12.47,22.01,21.43c5.44,8.96,8.16,18.66,8.16,29.09c0,10.44-2.72,20.17-8.16,29.18
			c-5.44,9.01-12.78,16.19-22.01,21.51c-9.23,5.33-19.23,7.99-30,7.99C533.95,306.68,524.01,304.02,514.77,298.68z M562.17,279.56
			c5.44-3.36,9.75-7.83,12.94-13.43c3.19-5.61,4.78-11.65,4.78-18.14c0-6.37-1.62-12.36-4.87-17.97
			c-3.24-5.6-7.55-10.08-12.94-13.43c-5.39-3.35-11.21-5.03-17.48-5.03c-6.15,0-11.95,1.68-17.39,5.03
			c-5.44,3.36-9.75,7.83-12.94,13.43c-3.19,5.61-4.78,11.59-4.78,17.97c0,6.49,1.59,12.53,4.78,18.14
			c3.19,5.6,7.5,10.08,12.94,13.43c5.44,3.35,11.24,5.03,17.39,5.03C550.88,284.59,556.73,282.91,562.17,279.56z"/>
		<path class="st0" d="M663.37,213.38h-35.27v-21.92h94.95v21.92h-35.27v91.32h-24.4V213.38z"/>
		<path class="st0" d="M818.26,286.9h-50.44l-7.25,17.8h-27.2l46.16-113.24h27.2l46.16,113.24h-27.36L818.26,286.9z M809.86,266.29
			l-16.81-41.38l-16.81,41.38H809.86z"/>
		<path class="st0" d="M903.36,213.38h-35.27v-21.92h94.95v21.92h-35.27v91.32h-24.4V213.38z"/>
		<path class="st0" d="M1027.46,213.38v22.59h56.87v21.92h-56.87v24.89h62.8v21.92h-87.2V191.45h87.2v21.92H1027.46z"/>
		<path class="st0" d="M1165.42,213.38h-35.28v-21.92h94.95v21.92h-35.27v91.32h-24.39V213.38z"/>
		<path class="st0" d="M1290.23,209.26h50.44l7.26-17.8h27.2l-46.16,113.24h-27.2l-46.16-113.24h27.36L1290.23,209.26z
			 M1298.64,229.86l16.81,41.38l16.81-41.38H1298.64z"/>
		<path class="st0" d="M1440.58,213.38h-35.28v-21.92h94.95v21.92h-35.28v91.32h-24.39V213.38z"/>
		<path class="st0" d="M1744.79,191.45l-46.16,113.24h-27.2l-46.16-113.24h27.36l32.47,79.78l32.47-79.78H1744.79z"/>
		<path class="st0" d="M1793.64,213.38v22.59h56.87v21.92h-56.87v24.89h62.81v21.92h-87.2V191.45h87.2v21.92H1793.64z"/>
		<g>
			<polygon class="st0" points="1566.96,191.45 1520.8,304.7 1547.82,304.7 1593.98,191.45 			"/>
		</g>
		<g>
			<path class="st0" d="M283.41,238.17l-5.11,20.25h13.67l-5.44,22.07H272.7l-6.1,24.21h-22.22l6.08-24.21h-23.33l-6.1,24.21H198.8
				l6.1-24.21h-13.35l5.44-22.07h13.51l5.11-20.25H201.6l5.44-22.07h13.99l6.26-24.54h22.24l-6.26,24.54h23.33l6.26-24.54h22.24
				l-6.26,24.54h13.67l-5.43,22.07H283.41z M261.17,238.17h-23.34l-5.11,20.25h23.34L261.17,238.17z"/>
		</g>
	</g>
</g>
</svg>
